<?xml version="1.0" encoding="UTF-8"?>
<svg xmlns="http://www.w3.org/2000/svg" xmlns:xlink="http://www.w3.org/1999/xlink" width="810pt" height="809.999993pt" viewBox="0 0 810 809.999993" version="1.2">
<defs>
<clipPath id="clip1">
  <path d="M 243 261 L 548 261 L 548 566.355469 L 243 566.355469 Z M 243 261 "/>
</clipPath>
</defs>
<g id="surface1">
<g clip-path="url(#clip1)" clip-rule="nonzero">
<path style=" stroke:none;fill-rule:nonzero;fill:rgb(100%,100%,100%);fill-opacity:1;" d="M 384.214844 289.457031 L 348.78125 325.546875 C 324.722656 349.601562 285.300781 361.632812 249.871094 362.289062 C 243.855469 362.289062 240.519531 369.640625 245.195312 374.34375 L 435.011719 564.132812 C 439.683594 568.808594 447.039062 565.472656 447.039062 559.457031 C 447.695312 524.054688 459.722656 485.289062 483.78125 460.546875 L 519.214844 425.140625 C 556.640625 387.6875 556.640625 326.882812 519.214844 289.457031 C 482.472656 252.03125 421.640625 252.03125 384.214844 289.457031 "/>
</g>
<path style=" stroke:none;fill-rule:nonzero;fill:rgb(100%,100%,100%);fill-opacity:1;" d="M 306.679688 502.648438 C 322.074219 518.039062 345.445312 520.691406 363.492188 510.683594 L 298.015625 445.835938 C 287.980469 464.5625 290.660156 487.28125 306.679688 502.648438 "/>
<path style=" stroke:none;fill-rule:nonzero;fill:rgb(100%,100%,100%);fill-opacity:1;" d="M 556.640625 252.6875 C 546.609375 242.679688 529.902344 242.679688 519.898438 252.6875 C 515.878906 256.707031 513.882812 261.378906 512.542969 266.054688 C 518.558594 270.074219 523.890625 274.75 529.246094 279.421875 C 534.578125 284.78125 538.597656 290.113281 542.617188 296.128906 C 547.292969 295.472656 552.621094 292.792969 555.984375 288.773438 C 566.675781 279.421875 566.675781 262.71875 556.640625 252.6875 "/>
</g>
</svg>
