<?xml version="1.0" encoding="UTF-8"?>
<svg xmlns="http://www.w3.org/2000/svg" xmlns:xlink="http://www.w3.org/1999/xlink" width="810pt" height="809.999993pt" viewBox="0 0 810 809.999993" version="1.2">
<defs>
<clipPath id="clip1">
  <path d="M 243 262.441406 L 496 262.441406 L 496 498 L 243 498 Z M 243 262.441406 "/>
</clipPath>
</defs>
<g id="surface1">
<g clip-path="url(#clip1)" clip-rule="nonzero">
<path style=" stroke:none;fill-rule:nonzero;fill:rgb(100%,100%,100%);fill-opacity:1;" d="M 495.996094 345.910156 C 495.996094 299.914062 458.589844 262.492188 412.621094 262.492188 L 326.375 262.492188 C 280.402344 262.492188 243 299.914062 243 345.910156 L 243 368.691406 C 243 404.570312 265.808594 436.332031 299.75 447.726562 L 303.089844 448.84375 L 301.324219 451.890625 C 296.796875 459.703125 290.648438 471.976562 282.527344 489.410156 C 281.546875 491.5 281.988281 494.003906 283.613281 495.644531 C 285.226562 497.257812 287.800781 497.710938 289.824219 496.773438 L 387.515625 452.109375 L 412.621094 452.109375 C 458.589844 452.109375 495.996094 414.6875 495.996094 368.691406 Z M 484.929688 368.691406 C 484.929688 408.585938 452.492188 441.050781 412.621094 441.050781 L 386.308594 441.050781 C 385.523438 441.050781 384.726562 441.222656 384.007812 441.550781 L 299.042969 480.402344 L 302.722656 473.097656 C 306.082031 466.421875 312.15625 454.652344 315.074219 450.84375 L 315.402344 450.414062 L 315.867188 450.132812 C 317.320312 449.253906 318.273438 447.789062 318.488281 446.109375 C 318.867188 443.171875 316.875 440.46875 313.957031 439.953125 C 279.253906 433.882812 254.0625 403.910156 254.0625 368.691406 L 254.0625 345.910156 C 254.0625 306.011719 286.5 273.550781 326.371094 273.550781 L 412.617188 273.550781 C 452.492188 273.550781 484.929688 306.011719 484.929688 345.910156 Z M 484.929688 368.691406 "/>
</g>
<path style=" stroke:none;fill-rule:nonzero;fill:rgb(100%,100%,100%);fill-opacity:1;" d="M 304.328125 343.511719 C 295.660156 343.511719 288.613281 350.558594 288.613281 359.21875 C 288.613281 367.882812 295.660156 374.925781 304.328125 374.925781 C 312.992188 374.925781 320.042969 367.878906 320.042969 359.21875 C 320.042969 350.558594 312.992188 343.511719 304.328125 343.511719 Z M 304.328125 343.511719 "/>
<path style=" stroke:none;fill-rule:nonzero;fill:rgb(100%,100%,100%);fill-opacity:1;" d="M 434.667969 343.511719 C 426 343.511719 418.953125 350.558594 418.953125 359.21875 C 418.953125 367.882812 426.003906 374.925781 434.667969 374.925781 C 443.332031 374.925781 450.382812 367.878906 450.382812 359.21875 C 450.382812 350.558594 443.332031 343.511719 434.667969 343.511719 Z M 434.667969 343.511719 "/>
<path style=" stroke:none;fill-rule:nonzero;fill:rgb(100%,100%,100%);fill-opacity:1;" d="M 369.496094 343.511719 C 360.832031 343.511719 353.78125 350.558594 353.78125 359.21875 C 353.78125 367.882812 360.832031 374.925781 369.496094 374.925781 C 378.160156 374.925781 385.210938 367.878906 385.210938 359.21875 C 385.210938 350.558594 378.164062 343.511719 369.496094 343.511719 Z M 369.496094 343.511719 "/>
<path style=" stroke:none;fill-rule:nonzero;fill:rgb(100%,100%,100%);fill-opacity:1;" d="M 355.054688 476.84375 L 343.667969 482.046875 C 358.191406 494.339844 376.914062 501.8125 397.378906 501.8125 L 422.484375 501.8125 L 520.171875 546.476562 C 522.195312 547.414062 524.769531 546.960938 526.386719 545.347656 C 528.011719 543.707031 528.449219 541.203125 527.472656 539.113281 C 519.351562 521.679688 513.203125 509.40625 508.675781 501.59375 L 506.910156 498.546875 L 510.25 497.429688 C 544.191406 486.035156 567 454.273438 567 418.390625 L 567 395.613281 C 567 354.960938 537.75 321.105469 499.222656 313.765625 C 500.699219 317.730469 501.894531 321.828125 502.820312 326.027344 C 502.839844 326.03125 502.859375 326.042969 502.878906 326.046875 C 502.855469 326.039062 502.832031 326.03125 502.8125 326.027344 C 504.214844 332.429688 505.007812 339.089844 505.007812 345.925781 L 505.007812 368.703125 C 505.007812 419.660156 463.570312 461.113281 412.632812 461.113281 L 389.484375 461.113281 M 491.507812 495.808594 L 491.507812 495.804688 "/>
</g>
</svg>
