<?xml version="1.0" encoding="UTF-8"?>
<svg xmlns="http://www.w3.org/2000/svg" xmlns:xlink="http://www.w3.org/1999/xlink" width="810pt" height="809.999993pt" viewBox="0 0 810 809.999993" version="1.2">
<defs>
<clipPath id="clip1">
  <path d="M 320 395 L 409 395 L 409 580.851562 L 320 580.851562 Z M 320 395 "/>
</clipPath>
<clipPath id="clip2">
  <path d="M 401 229.101562 L 409 229.101562 L 409 261 L 401 261 Z M 401 229.101562 "/>
</clipPath>
</defs>
<g id="surface1">
<g clip-path="url(#clip1)" clip-rule="nonzero">
<path style=" stroke:none;fill-rule:nonzero;fill:rgb(65.098572%,65.098572%,65.098572%);fill-opacity:1;" d="M 366.667969 580.882812 C 364.398438 580.882812 346.25 580.460938 333.152344 567.585938 C 324.4375 559.023438 320.015625 547.011719 320.015625 531.894531 C 320.015625 529.863281 321.664062 528.21875 323.691406 528.21875 C 325.722656 528.21875 327.367188 529.863281 327.367188 531.894531 C 327.367188 544.964844 331.050781 555.210938 338.304688 562.339844 C 349.851562 573.691406 366.648438 573.53125 366.816406 573.527344 C 377.050781 573.527344 385.175781 570.542969 391.015625 564.664062 C 401.449219 554.160156 401.46875 537.855469 401.464844 537.691406 L 401.464844 398.976562 C 401.464844 396.949219 403.109375 395.300781 405.140625 395.300781 C 407.171875 395.300781 408.816406 396.949219 408.816406 398.976562 L 408.816406 537.667969 C 408.824219 538.4375 408.800781 557.195312 396.230469 569.847656 C 388.957031 577.167969 379.082031 580.878906 366.882812 580.878906 C 366.847656 580.878906 366.777344 580.882812 366.667969 580.882812 "/>
</g>
<g clip-path="url(#clip2)" clip-rule="nonzero">
<path style=" stroke:none;fill-rule:nonzero;fill:rgb(65.098572%,65.098572%,65.098572%);fill-opacity:1;" d="M 405.140625 260.964844 C 403.109375 260.964844 401.464844 259.320312 401.464844 257.289062 L 401.464844 232.808594 C 401.464844 230.777344 403.109375 229.132812 405.140625 229.132812 C 407.171875 229.132812 408.816406 230.777344 408.816406 232.808594 L 408.816406 257.289062 C 408.816406 259.320312 407.171875 260.964844 405.140625 260.964844 "/>
</g>
<path style=" stroke:none;fill-rule:nonzero;fill:rgb(65.098572%,65.098572%,65.098572%);fill-opacity:1;" d="M 271.246094 377.550781 C 286.792969 377.550781 302.25 383.148438 317.226562 394.203125 C 323.097656 389.230469 339.203125 377.550781 361.070312 377.550781 C 376.148438 377.550781 390.910156 383.128906 404.996094 394.136719 C 410.882812 389.105469 426.789062 377.550781 448.546875 377.550781 C 463.613281 377.550781 478.433594 383.117188 492.644531 394.113281 C 498.492188 388.964844 514.28125 377.222656 536.671875 377.222656 C 550.242188 377.222656 563.847656 381.566406 577.234375 390.15625 C 555.199219 313.597656 485.796875 260.964844 405.140625 260.964844 C 324.785156 260.964844 255.597656 313.214844 233.296875 389.3125 C 241.382812 383.960938 254.558594 377.550781 271.246094 377.550781 Z M 226.972656 402.652344 C 226.367188 402.652344 225.761719 402.503906 225.203125 402.199219 C 223.761719 401.40625 223.023438 399.757812 223.390625 398.152344 C 232.6875 357.71875 255.699219 321.027344 288.1875 294.835938 C 304.410156 281.757812 322.535156 271.570312 342.054688 264.554688 C 362.253906 257.292969 383.480469 253.613281 405.140625 253.613281 C 426.800781 253.613281 448.027344 257.292969 468.226562 264.554688 C 487.75 271.570312 505.871094 281.757812 522.09375 294.835938 C 554.496094 320.953125 577.472656 357.519531 586.816406 397.828125 C 586.933594 398.1875 587 398.574219 587 398.976562 C 587 401.007812 585.355469 402.652344 583.324219 402.652344 C 583.320312 402.652344 583.316406 402.652344 583.308594 402.652344 C 582.507812 402.652344 581.710938 402.394531 581.050781 401.875 C 566.324219 390.394531 551.394531 384.574219 536.671875 384.574219 C 511.746094 384.574219 495.683594 401.328125 495.527344 401.496094 C 494.199219 402.90625 492.007812 403.046875 490.511719 401.816406 C 476.882812 390.589844 462.757812 384.902344 448.546875 384.902344 C 424.5 384.902344 407.921875 401.390625 407.761719 401.558594 C 406.417969 402.914062 404.257812 403.023438 402.792969 401.800781 C 389.3125 390.589844 375.277344 384.902344 361.070312 384.902344 C 336.890625 384.902344 320.207031 401.402344 320.039062 401.570312 C 318.726562 402.890625 316.640625 403.019531 315.171875 401.875 C 300.746094 390.613281 285.96875 384.902344 271.246094 384.902344 C 246.273438 384.902344 229.757812 401.390625 229.59375 401.554688 C 228.882812 402.277344 227.933594 402.652344 226.972656 402.652344 "/>
</g>
</svg>
